<svg xmlns="http://www.w3.org/2000/svg" width="128" height="128" viewBox="0 0 128 128" fill="none">
  <title>ArmorAuth</title>
  <rect x="10" y="10" width="108" height="108" rx="28" fill="white"/>
  <path d="M64 28L89 39V64C89 82 79 98 64 106C49 98 39 82 39 64V39L64 28Z" stroke="#2F64E1" stroke-width="6" stroke-linejoin="round"/>
  <path d="M64 43V49" stroke="#2F64E1" stroke-width="4" stroke-linecap="round"/>
  <path d="M55 51C57 47 60 45 64 45C68 45 71 47 73 51" stroke="#2F64E1" stroke-width="4" stroke-linecap="round" stroke-linejoin="round"/>
  <path d="M64 51C71 51 77 57 77 65C77 73 71 79 64 82C57 79 51 73 51 65C51 57 57 51 64 51Z" stroke="#2F64E1" stroke-width="4" stroke-linejoin="round"/>
  <path d="M57.5 61C59 58.5 61.5 57 64 57" stroke="#2F64E1" stroke-width="3" stroke-linecap="round" opacity="0.85"/>
</svg>
