<svg xmlns="http://www.w3.org/2000/svg" width="256" height="256" viewBox="0 0 256 256" fill="none">
  <rect x="20" y="20" width="216" height="216" rx="52" fill="white"/>
  <path d="M128 56L180 78V128C180 164 159 196 128 212C97 196 76 164 76 128V78L128 56Z" stroke="#2F64E1" stroke-width="12" stroke-linejoin="round"/>
  <path d="M128 86V98" stroke="#2F64E1" stroke-width="8" stroke-linecap="round"/>
  <path d="M110 102C114 94 120 90 128 90C136 90 142 94 146 102" stroke="#2F64E1" stroke-width="8" stroke-linecap="round" stroke-linejoin="round"/>
  <path d="M128 102C142 102 154 114 154 130C154 145 142 159 128 166C114 159 102 145 102 130C102 114 114 102 128 102Z" stroke="#2F64E1" stroke-width="8" stroke-linejoin="round"/>
  <path d="M115 122C118 117 122 114 127 114" stroke="#2F64E1" stroke-width="6" stroke-linecap="round" opacity="0.85"/>
</svg>
