<svg width="960" height="280" viewBox="0 0 960 280" fill="none" xmlns="http://www.w3.org/2000/svg">
  <rect x="20" y="48" width="740" height="120" rx="28" fill="white"/>
  <path d="M114 76L144 88V118C144 139 132 157 114 166C96 157 84 139 84 118V88L114 76Z" stroke="#2F64E1" stroke-width="8" stroke-linejoin="round"/>
  <path d="M114 92V98" stroke="#2F64E1" stroke-width="4.5" stroke-linecap="round"/>
  <path d="M105 100C107 96 110 94 114 94C118 94 121 96 123 100" stroke="#2F64E1" stroke-width="4.5" stroke-linecap="round" stroke-linejoin="round"/>
  <path d="M114 100C121 100 126 106 126 114C126 121 120 127 114 130C108 127 102 121 102 114C102 106 107 100 114 100Z" stroke="#2F64E1" stroke-width="4.5" stroke-linejoin="round"/>
  <path d="M108 110C109 108 111 107 113 107" stroke="#2F64E1" stroke-width="3.5" stroke-linecap="round" opacity="0.85"/>
  <text x="164" y="127" fill="#2F64E1" font-size="54" font-weight="700" font-family="'Segoe UI', 'Inter', Arial, sans-serif" letter-spacing="-1">ArmorAuth</text>
  <text x="165" y="157" fill="#6F86C7" font-size="16" font-weight="600" font-family="'Segoe UI', 'Inter', Arial, sans-serif" letter-spacing="2.2">IDENTITY AUTHORIZATION FEDERATION</text>
</svg>
